# MagicaVoxel @ Ephtracy

# group
o 

# material
mtllib light.vox.mtl
usemtl palette

# normals
vn -1 0 0
vn 1 0 0
vn 0 0 1
vn 0 0 -1
vn 0 -1 0
vn 0 1 0

# texcoords
vt 0.0644531 0.5
vt 0.455078 0.5
vt 0.458984 0.5

# verts
v -0.3 2.9 0.1
v -0.3 2.9 -0.3
v -0.3 3 0.1
v -0.3 3 -0.3
v -0.3 3.5 0.1
v -0.3 3.5 -0.3
v -0.3 3.6 0.1
v -0.3 3.6 -0.3
v -0.2 0 -1.49012e-08
v -0.2 0 -0.2
v -0.2 2.9 -1.49012e-08
v -0.2 2.9 -0.2
v -0.2 3 -1.49012e-08
v -0.2 3 -0.2
v -0.2 3.5 -1.49012e-08
v -0.2 3.5 -0.2
v -0.1 0 0.1
v -0.1 0 -1.49012e-08
v -0.1 0 -0.2
v -0.1 0 -0.3
v -0.1 2.9 0.1
v -0.1 2.9 -1.49012e-08
v -0.1 2.9 -0.2
v -0.1 2.9 -0.3
v 2.98023e-08 0 0.1
v 2.98023e-08 0 -1.49012e-08
v 2.98023e-08 0 -0.2
v 2.98023e-08 0 -0.3
v 2.98023e-08 2.9 0.1
v 2.98023e-08 2.9 -1.49012e-08
v 2.98023e-08 2.9 -0.2
v 2.98023e-08 2.9 -0.3
v 0.1 0 -1.49012e-08
v 0.1 0 -0.2
v 0.1 2.9 -1.49012e-08
v 0.1 2.9 -0.2
v 0.1 3 -1.49012e-08
v 0.1 3 -0.2
v 0.1 3.5 -1.49012e-08
v 0.1 3.5 -0.2
v 0.2 2.9 0.1
v 0.2 2.9 -0.3
v 0.2 3 0.1
v 0.2 3 -0.3
v 0.2 3.5 0.1
v 0.2 3.5 -0.3
v 0.2 3.6 0.1
v 0.2 3.6 -0.3
v -0.3 2.9 0.1
v -0.3 3 0.1
v -0.3 3.5 0.1
v -0.3 3.6 0.1
v -0.1 0 0.1
v -0.1 2.9 0.1
v 2.98023e-08 0 0.1
v 2.98023e-08 2.9 0.1
v 0.2 2.9 0.1
v 0.2 3 0.1
v 0.2 3.5 0.1
v 0.2 3.6 0.1
v -0.2 0 -1.49012e-08
v -0.2 2.9 -1.49012e-08
v -0.2 3 -1.49012e-08
v -0.2 3.5 -1.49012e-08
v -0.1 0 -1.49012e-08
v -0.1 2.9 -1.49012e-08
v 2.98023e-08 0 -1.49012e-08
v 2.98023e-08 2.9 -1.49012e-08
v 0.1 0 -1.49012e-08
v 0.1 2.9 -1.49012e-08
v 0.1 3 -1.49012e-08
v 0.1 3.5 -1.49012e-08
v -0.2 0 -0.2
v -0.2 2.9 -0.2
v -0.2 3 -0.2
v -0.2 3.5 -0.2
v -0.1 0 -0.2
v -0.1 2.9 -0.2
v 2.98023e-08 0 -0.2
v 2.98023e-08 2.9 -0.2
v 0.1 0 -0.2
v 0.1 2.9 -0.2
v 0.1 3 -0.2
v 0.1 3.5 -0.2
v -0.3 2.9 -0.3
v -0.3 3 -0.3
v -0.3 3.5 -0.3
v -0.3 3.6 -0.3
v -0.1 0 -0.3
v -0.1 2.9 -0.3
v 2.98023e-08 0 -0.3
v 2.98023e-08 2.9 -0.3
v 0.2 2.9 -0.3
v 0.2 3 -0.3
v 0.2 3.5 -0.3
v 0.2 3.6 -0.3
v -0.1 0 0.1
v 2.98023e-08 0 0.1
v -0.2 0 -1.49012e-08
v -0.1 0 -1.49012e-08
v 2.98023e-08 0 -1.49012e-08
v 0.1 0 -1.49012e-08
v -0.2 0 -0.2
v -0.1 0 -0.2
v 2.98023e-08 0 -0.2
v 0.1 0 -0.2
v -0.1 0 -0.3
v 2.98023e-08 0 -0.3
v -0.3 2.9 0.1
v -0.1 2.9 0.1
v 2.98023e-08 2.9 0.1
v 0.2 2.9 0.1
v -0.2 2.9 -1.49012e-08
v -0.1 2.9 -1.49012e-08
v 2.98023e-08 2.9 -1.49012e-08
v 0.1 2.9 -1.49012e-08
v -0.2 2.9 -0.2
v -0.1 2.9 -0.2
v 2.98023e-08 2.9 -0.2
v 0.1 2.9 -0.2
v -0.3 2.9 -0.3
v -0.1 2.9 -0.3
v 2.98023e-08 2.9 -0.3
v 0.2 2.9 -0.3
v -0.3 3.5 0.1
v 0.2 3.5 0.1
v -0.2 3.5 -1.49012e-08
v 0.1 3.5 -1.49012e-08
v -0.2 3.5 -0.2
v 0.1 3.5 -0.2
v -0.3 3.5 -0.3
v 0.2 3.5 -0.3
v -0.3 3 0.1
v 0.2 3 0.1
v -0.2 3 -1.49012e-08
v 0.1 3 -1.49012e-08
v -0.2 3 -0.2
v 0.1 3 -0.2
v -0.3 3 -0.3
v 0.2 3 -0.3
v -0.3 3.6 0.1
v 0.2 3.6 0.1
v -0.3 3.6 -0.3
v 0.2 3.6 -0.3

# faces
f 3/2/1 2/2/1 1/2/1
f 4/2/1 2/2/1 3/2/1
f 7/2/1 6/2/1 5/2/1
f 8/2/1 6/2/1 7/2/1
f 11/3/1 10/3/1 9/3/1
f 12/3/1 10/3/1 11/3/1
f 15/1/1 14/1/1 13/1/1
f 16/1/1 14/1/1 15/1/1
f 21/3/1 18/3/1 17/3/1
f 22/3/1 18/3/1 21/3/1
f 23/3/1 20/3/1 19/3/1
f 24/3/1 20/3/1 23/3/1
f 25/3/2 26/3/2 29/3/2
f 29/3/2 26/3/2 30/3/2
f 27/3/2 28/3/2 31/3/2
f 31/3/2 28/3/2 32/3/2
f 33/3/2 34/3/2 35/3/2
f 35/3/2 34/3/2 36/3/2
f 37/1/2 38/1/2 39/1/2
f 39/1/2 38/1/2 40/1/2
f 41/2/2 42/2/2 43/2/2
f 43/2/2 42/2/2 44/2/2
f 45/2/2 46/2/2 47/2/2
f 47/2/2 46/2/2 48/2/2
f 54/2/3 50/2/3 49/2/3
f 55/3/3 54/3/3 53/3/3
f 56/2/3 50/2/3 54/2/3
f 56/3/3 54/3/3 55/3/3
f 57/2/3 50/2/3 56/2/3
f 58/2/3 50/2/3 57/2/3
f 59/2/3 52/2/3 51/2/3
f 60/2/3 52/2/3 59/2/3
f 65/3/3 62/3/3 61/3/3
f 66/3/3 62/3/3 65/3/3
f 69/3/3 68/3/3 67/3/3
f 70/3/3 68/3/3 69/3/3
f 71/1/3 64/1/3 63/1/3
f 72/1/3 64/1/3 71/1/3
f 73/3/4 74/3/4 77/3/4
f 77/3/4 74/3/4 78/3/4
f 79/3/4 80/3/4 81/3/4
f 81/3/4 80/3/4 82/3/4
f 75/1/4 76/1/4 83/1/4
f 83/1/4 76/1/4 84/1/4
f 85/2/4 86/2/4 90/2/4
f 89/3/4 90/3/4 91/3/4
f 90/2/4 86/2/4 92/2/4
f 91/3/4 90/3/4 92/3/4
f 92/2/4 86/2/4 93/2/4
f 93/2/4 86/2/4 94/2/4
f 87/2/4 88/2/4 95/2/4
f 95/2/4 88/2/4 96/2/4
f 100/3/5 98/3/5 97/3/5
f 101/3/5 98/3/5 100/3/5
f 103/3/5 100/3/5 99/3/5
f 103/3/5 102/3/5 101/3/5
f 103/3/5 101/3/5 100/3/5
f 104/3/5 102/3/5 103/3/5
f 105/3/5 102/3/5 104/3/5
f 106/3/5 102/3/5 105/3/5
f 107/3/5 105/3/5 104/3/5
f 108/3/5 105/3/5 107/3/5
f 113/2/5 110/2/5 109/2/5
f 114/2/5 110/2/5 113/2/5
f 115/2/5 112/2/5 111/2/5
f 116/2/5 112/2/5 115/2/5
f 117/2/5 113/2/5 109/2/5
f 120/2/5 112/2/5 116/2/5
f 121/2/5 118/2/5 117/2/5
f 121/2/5 117/2/5 109/2/5
f 122/2/5 118/2/5 121/2/5
f 123/2/5 120/2/5 119/2/5
f 124/2/5 112/2/5 120/2/5
f 124/2/5 120/2/5 123/2/5
f 127/2/5 126/2/5 125/2/5
f 128/2/5 126/2/5 127/2/5
f 129/2/5 127/2/5 125/2/5
f 130/2/5 126/2/5 128/2/5
f 131/2/5 129/2/5 125/2/5
f 131/2/5 130/2/5 129/2/5
f 132/2/5 126/2/5 130/2/5
f 132/2/5 130/2/5 131/2/5
f 133/2/6 134/2/6 135/2/6
f 135/2/6 134/2/6 136/2/6
f 133/2/6 135/2/6 137/2/6
f 136/2/6 134/2/6 138/2/6
f 133/2/6 137/2/6 139/2/6
f 137/2/6 138/2/6 139/2/6
f 138/2/6 134/2/6 140/2/6
f 139/2/6 138/2/6 140/2/6
f 141/2/6 142/2/6 143/2/6
f 143/2/6 142/2/6 144/2/6
