# MagicaVoxel @ Ephtracy

# group
o 

# material
mtllib sword.vox.mtl
usemtl palette

# normals
vn -1 0 0
vn 1 0 0
vn 0 0 1
vn 0 0 -1
vn 0 -1 0
vn 0 1 0

# texcoords
vt 0.958984 0.5
vt 0.970703 0.5

# verts
v -0.5 1 0.1
v -0.5 1 -0.1
v -0.5 1.2 0.1
v -0.5 1.2 -0.1
v -0.4 1 0.2
v -0.4 1 0.1
v -0.4 1 -0.1
v -0.4 1 -0.2
v -0.4 1.2 0.2
v -0.4 1.2 0.1
v -0.4 1.2 -0.1
v -0.4 1.2 -0.2
v -0.4 1.4 0.1
v -0.4 1.4 -0.1
v -0.3 0.9 0.1
v -0.3 0.9 -0.1
v -0.3 1 0.1
v -0.3 1 -0.1
v -0.3 1.2 0.2
v -0.3 1.2 0.1
v -0.3 1.2 -0.1
v -0.3 1.2 -0.2
v -0.3 1.3 0.2
v -0.3 1.3 0.1
v -0.3 1.3 -0.1
v -0.3 1.3 -0.2
v -0.3 1.4 0.1
v -0.3 1.4 -0.1
v -0.3 3.5 0.1
v -0.3 3.5 -0.1
v -0.2 0 0.1
v -0.2 0 -0.1
v -0.2 0.9 0.1
v -0.2 0.9 -0.1
v -0.2 1 0.3
v -0.2 1 0.2
v -0.2 1 -0.2
v -0.2 1 -0.3
v -0.2 1.3 0.3
v -0.2 1.3 0.2
v -0.2 1.3 0.1
v -0.2 1.3 -0.1
v -0.2 1.3 -0.2
v -0.2 1.3 -0.3
v -0.2 1.4 0.2
v -0.2 1.4 0.1
v -0.2 1.4 -0.1
v -0.2 1.4 -0.2
v -0.2 3.5 0.1
v -0.2 3.5 -0.1
v -0.2 3.7 0.1
v -0.2 3.7 -0.1
v -0.1 0.1 0.2
v -0.1 0.1 0.1
v -0.1 0.1 -0.1
v -0.1 0.1 -0.2
v -0.1 0.9 -0.1
v -0.1 0.9 -0.2
v -0.1 1 0.2
v -0.1 1 0.1
v -0.1 3.7 0.1
v -0.1 3.7 -0.1
v -0.1 3.9 0.1
v -0.1 3.9 -0.1
v 0 0.1 0.2
v 0 0.1 0.1
v 0 0.1 -0.1
v 0 0.1 -0.2
v 0 0.9 -0.1
v 0 0.9 -0.2
v 0 1 0.2
v 0 1 0.1
v 0 3.7 0.1
v 0 3.7 -0.1
v 0 3.9 0.1
v 0 3.9 -0.1
v 0.1 0 0.1
v 0.1 0 -0.1
v 0.1 0.9 0.1
v 0.1 0.9 -0.1
v 0.1 1 0.3
v 0.1 1 0.2
v 0.1 1 -0.2
v 0.1 1 -0.3
v 0.1 1.3 0.3
v 0.1 1.3 0.2
v 0.1 1.3 0.1
v 0.1 1.3 -0.1
v 0.1 1.3 -0.2
v 0.1 1.3 -0.3
v 0.1 1.4 0.2
v 0.1 1.4 0.1
v 0.1 1.4 -0.1
v 0.1 1.4 -0.2
v 0.1 3.5 0.1
v 0.1 3.5 -0.1
v 0.1 3.7 0.1
v 0.1 3.7 -0.1
v 0.2 0.9 0.1
v 0.2 0.9 -0.1
v 0.2 1 0.1
v 0.2 1 -0.1
v 0.2 1.2 0.2
v 0.2 1.2 0.1
v 0.2 1.2 -0.1
v 0.2 1.2 -0.2
v 0.2 1.3 0.2
v 0.2 1.3 0.1
v 0.2 1.3 -0.1
v 0.2 1.3 -0.2
v 0.2 1.4 0.1
v 0.2 1.4 -0.1
v 0.2 3.5 0.1
v 0.2 3.5 -0.1
v 0.3 1 0.2
v 0.3 1 0.1
v 0.3 1 -0.1
v 0.3 1 -0.2
v 0.3 1.2 0.2
v 0.3 1.2 0.1
v 0.3 1.2 -0.1
v 0.3 1.2 -0.2
v 0.3 1.4 0.1
v 0.3 1.4 -0.1
v 0.4 1 0.1
v 0.4 1 -0.1
v 0.4 1.2 0.1
v 0.4 1.2 -0.1
v -0.2 1 0.3
v -0.2 1.3 0.3
v 0.1 1 0.3
v 0.1 1.3 0.3
v -0.4 1 0.2
v -0.4 1.2 0.2
v -0.3 1.2 0.2
v -0.3 1.3 0.2
v -0.2 1 0.2
v -0.2 1.3 0.2
v -0.2 1.4 0.2
v -0.1 0.1 0.2
v -0.1 1 0.2
v 0 0.1 0.2
v 0 1 0.2
v 0.1 1 0.2
v 0.1 1.3 0.2
v 0.1 1.4 0.2
v 0.2 1.2 0.2
v 0.2 1.3 0.2
v 0.3 1 0.2
v 0.3 1.2 0.2
v -0.5 1 0.1
v -0.5 1.2 0.1
v -0.4 1 0.1
v -0.4 1.2 0.1
v -0.4 1.4 0.1
v -0.3 0.9 0.1
v -0.3 1 0.1
v -0.3 1.2 0.1
v -0.3 1.3 0.1
v -0.3 1.4 0.1
v -0.3 3.5 0.1
v -0.2 0 0.1
v -0.2 0.9 0.1
v -0.2 1.3 0.1
v -0.2 1.4 0.1
v -0.2 3.5 0.1
v -0.2 3.7 0.1
v -0.1 0.1 0.1
v -0.1 1 0.1
v -0.1 3.7 0.1
v -0.1 3.9 0.1
v 0 0.1 0.1
v 0 1 0.1
v 0 3.7 0.1
v 0 3.9 0.1
v 0.1 0 0.1
v 0.1 0.9 0.1
v 0.1 1.3 0.1
v 0.1 1.4 0.1
v 0.1 3.5 0.1
v 0.1 3.7 0.1
v 0.2 0.9 0.1
v 0.2 1 0.1
v 0.2 1.2 0.1
v 0.2 1.3 0.1
v 0.2 1.4 0.1
v 0.2 3.5 0.1
v 0.3 1 0.1
v 0.3 1.2 0.1
v 0.3 1.4 0.1
v 0.4 1 0.1
v 0.4 1.2 0.1
v -0.5 1 -0.1
v -0.5 1.2 -0.1
v -0.4 1 -0.1
v -0.4 1.2 -0.1
v -0.4 1.4 -0.1
v -0.3 0.9 -0.1
v -0.3 1 -0.1
v -0.3 1.2 -0.1
v -0.3 1.3 -0.1
v -0.3 1.4 -0.1
v -0.3 3.5 -0.1
v -0.2 0 -0.1
v -0.2 0.9 -0.1
v -0.2 1.3 -0.1
v -0.2 1.4 -0.1
v -0.2 3.5 -0.1
v -0.2 3.7 -0.1
v -0.1 0.1 -0.1
v -0.1 0.9 -0.1
v -0.1 3.7 -0.1
v -0.1 3.9 -0.1
v 0 0.1 -0.1
v 0 0.9 -0.1
v 0 3.7 -0.1
v 0 3.9 -0.1
v 0.1 0 -0.1
v 0.1 0.9 -0.1
v 0.1 1.3 -0.1
v 0.1 1.4 -0.1
v 0.1 3.5 -0.1
v 0.1 3.7 -0.1
v 0.2 0.9 -0.1
v 0.2 1 -0.1
v 0.2 1.2 -0.1
v 0.2 1.3 -0.1
v 0.2 1.4 -0.1
v 0.2 3.5 -0.1
v 0.3 1 -0.1
v 0.3 1.2 -0.1
v 0.3 1.4 -0.1
v 0.4 1 -0.1
v 0.4 1.2 -0.1
v -0.4 1 -0.2
v -0.4 1.2 -0.2
v -0.3 1.2 -0.2
v -0.3 1.3 -0.2
v -0.2 1 -0.2
v -0.2 1.3 -0.2
v -0.2 1.4 -0.2
v -0.1 0.1 -0.2
v -0.1 0.9 -0.2
v 0 0.1 -0.2
v 0 0.9 -0.2
v 0.1 1 -0.2
v 0.1 1.3 -0.2
v 0.1 1.4 -0.2
v 0.2 1.2 -0.2
v 0.2 1.3 -0.2
v 0.3 1 -0.2
v 0.3 1.2 -0.2
v -0.2 1 -0.3
v -0.2 1.3 -0.3
v 0.1 1 -0.3
v 0.1 1.3 -0.3
v -0.2 0 0.1
v 0.1 0 0.1
v -0.2 0 -0.1
v 0.1 0 -0.1
v -0.1 0.1 0.2
v 0 0.1 0.2
v -0.1 0.1 0.1
v 0 0.1 0.1
v -0.1 0.1 -0.1
v 0 0.1 -0.1
v -0.1 0.1 -0.2
v 0 0.1 -0.2
v -0.3 0.9 0.1
v -0.2 0.9 0.1
v 0.1 0.9 0.1
v 0.2 0.9 0.1
v -0.3 0.9 -0.1
v -0.2 0.9 -0.1
v 0.1 0.9 -0.1
v 0.2 0.9 -0.1
v -0.2 1 0.3
v 0.1 1 0.3
v -0.4 1 0.2
v -0.2 1 0.2
v -0.1 1 0.2
v 0 1 0.2
v 0.1 1 0.2
v 0.3 1 0.2
v -0.5 1 0.1
v -0.4 1 0.1
v -0.3 1 0.1
v -0.1 1 0.1
v 0 1 0.1
v 0.2 1 0.1
v 0.3 1 0.1
v 0.4 1 0.1
v -0.5 1 -0.1
v -0.4 1 -0.1
v -0.3 1 -0.1
v 0.2 1 -0.1
v 0.3 1 -0.1
v 0.4 1 -0.1
v -0.4 1 -0.2
v -0.2 1 -0.2
v 0.1 1 -0.2
v 0.3 1 -0.2
v -0.2 1 -0.3
v 0.1 1 -0.3
v -0.1 0.9 -0.1
v 0 0.9 -0.1
v -0.1 0.9 -0.2
v 0 0.9 -0.2
v -0.4 1.2 0.2
v -0.3 1.2 0.2
v 0.2 1.2 0.2
v 0.3 1.2 0.2
v -0.5 1.2 0.1
v -0.4 1.2 0.1
v -0.3 1.2 0.1
v 0.2 1.2 0.1
v 0.3 1.2 0.1
v 0.4 1.2 0.1
v -0.5 1.2 -0.1
v -0.4 1.2 -0.1
v -0.3 1.2 -0.1
v 0.2 1.2 -0.1
v 0.3 1.2 -0.1
v 0.4 1.2 -0.1
v -0.4 1.2 -0.2
v -0.3 1.2 -0.2
v 0.2 1.2 -0.2
v 0.3 1.2 -0.2
v -0.2 1.3 0.3
v 0.1 1.3 0.3
v -0.3 1.3 0.2
v -0.2 1.3 0.2
v 0.1 1.3 0.2
v 0.2 1.3 0.2
v -0.3 1.3 0.1
v -0.2 1.3 0.1
v 0.1 1.3 0.1
v 0.2 1.3 0.1
v -0.3 1.3 -0.1
v -0.2 1.3 -0.1
v 0.1 1.3 -0.1
v 0.2 1.3 -0.1
v -0.3 1.3 -0.2
v -0.2 1.3 -0.2
v 0.1 1.3 -0.2
v 0.2 1.3 -0.2
v -0.2 1.3 -0.3
v 0.1 1.3 -0.3
v -0.2 1.4 0.2
v 0.1 1.4 0.2
v -0.4 1.4 0.1
v -0.3 1.4 0.1
v -0.2 1.4 0.1
v 0.1 1.4 0.1
v 0.2 1.4 0.1
v 0.3 1.4 0.1
v -0.4 1.4 -0.1
v -0.3 1.4 -0.1
v -0.2 1.4 -0.1
v 0.1 1.4 -0.1
v 0.2 1.4 -0.1
v 0.3 1.4 -0.1
v -0.2 1.4 -0.2
v 0.1 1.4 -0.2
v -0.3 3.5 0.1
v -0.2 3.5 0.1
v 0.1 3.5 0.1
v 0.2 3.5 0.1
v -0.3 3.5 -0.1
v -0.2 3.5 -0.1
v 0.1 3.5 -0.1
v 0.2 3.5 -0.1
v -0.2 3.7 0.1
v -0.1 3.7 0.1
v 0 3.7 0.1
v 0.1 3.7 0.1
v -0.2 3.7 -0.1
v -0.1 3.7 -0.1
v 0 3.7 -0.1
v 0.1 3.7 -0.1
v -0.1 3.9 0.1
v 0 3.9 0.1
v -0.1 3.9 -0.1
v 0 3.9 -0.1

# faces
f 3/2/1 2/2/1 1/2/1
f 4/2/1 2/2/1 3/2/1
f 9/2/1 6/2/1 5/2/1
f 10/2/1 6/2/1 9/2/1
f 11/2/1 8/2/1 7/2/1
f 12/2/1 8/2/1 11/2/1
f 13/2/1 11/2/1 10/2/1
f 14/2/1 11/2/1 13/2/1
f 17/2/1 16/2/1 15/2/1
f 18/2/1 16/2/1 17/2/1
f 23/2/1 20/2/1 19/2/1
f 24/2/1 20/2/1 23/2/1
f 25/2/1 22/2/1 21/2/1
f 26/2/1 22/2/1 25/2/1
f 29/1/1 28/1/1 27/1/1
f 30/1/1 28/1/1 29/1/1
f 33/2/1 32/2/1 31/2/1
f 34/2/1 32/2/1 33/2/1
f 39/2/1 36/2/1 35/2/1
f 40/2/1 36/2/1 39/2/1
f 43/2/1 38/2/1 37/2/1
f 44/2/1 38/2/1 43/2/1
f 45/2/1 41/2/1 40/2/1
f 46/2/1 41/2/1 45/2/1
f 47/2/1 43/2/1 42/2/1
f 48/2/1 43/2/1 47/2/1
f 51/1/1 50/1/1 49/1/1
f 52/1/1 50/1/1 51/1/1
f 57/2/1 56/2/1 55/2/1
f 58/2/1 56/2/1 57/2/1
f 59/2/1 54/2/1 53/2/1
f 60/2/1 54/2/1 59/2/1
f 63/1/1 62/1/1 61/1/1
f 64/1/1 62/1/1 63/1/1
f 67/2/2 68/2/2 69/2/2
f 69/2/2 68/2/2 70/2/2
f 65/2/2 66/2/2 71/2/2
f 71/2/2 66/2/2 72/2/2
f 73/1/2 74/1/2 75/1/2
f 75/1/2 74/1/2 76/1/2
f 77/2/2 78/2/2 79/2/2
f 79/2/2 78/2/2 80/2/2
f 81/2/2 82/2/2 85/2/2
f 85/2/2 82/2/2 86/2/2
f 83/2/2 84/2/2 89/2/2
f 89/2/2 84/2/2 90/2/2
f 86/2/2 87/2/2 91/2/2
f 91/2/2 87/2/2 92/2/2
f 88/2/2 89/2/2 93/2/2
f 93/2/2 89/2/2 94/2/2
f 95/1/2 96/1/2 97/1/2
f 97/1/2 96/1/2 98/1/2
f 99/2/2 100/2/2 101/2/2
f 101/2/2 100/2/2 102/2/2
f 103/2/2 104/2/2 107/2/2
f 107/2/2 104/2/2 108/2/2
f 105/2/2 106/2/2 109/2/2
f 109/2/2 106/2/2 110/2/2
f 111/1/2 112/1/2 113/1/2
f 113/1/2 112/1/2 114/1/2
f 115/2/2 116/2/2 119/2/2
f 119/2/2 116/2/2 120/2/2
f 117/2/2 118/2/2 121/2/2
f 121/2/2 118/2/2 122/2/2
f 120/2/2 121/2/2 123/2/2
f 123/2/2 121/2/2 124/2/2
f 125/2/2 126/2/2 127/2/2
f 127/2/2 126/2/2 128/2/2
f 131/2/3 130/2/3 129/2/3
f 132/2/3 130/2/3 131/2/3
f 135/2/3 134/2/3 133/2/3
f 137/2/3 135/2/3 133/2/3
f 137/2/3 136/2/3 135/2/3
f 138/2/3 136/2/3 137/2/3
f 142/2/3 141/2/3 140/2/3
f 143/2/3 141/2/3 142/2/3
f 145/2/3 139/2/3 138/2/3
f 146/2/3 139/2/3 145/2/3
f 147/2/3 145/2/3 144/2/3
f 148/2/3 145/2/3 147/2/3
f 149/2/3 147/2/3 144/2/3
f 150/2/3 147/2/3 149/2/3
f 153/2/3 152/2/3 151/2/3
f 154/2/3 152/2/3 153/2/3
f 158/2/3 155/2/3 154/2/3
f 159/2/3 155/2/3 158/2/3
f 160/2/3 155/2/3 159/2/3
f 163/2/3 157/2/3 156/2/3
f 164/1/3 160/1/3 159/1/3
f 164/1/3 161/1/3 160/1/3
f 165/1/3 161/1/3 164/1/3
f 166/1/3 161/1/3 165/1/3
f 168/2/3 163/2/3 162/2/3
f 169/2/3 157/2/3 163/2/3
f 169/2/3 163/2/3 168/2/3
f 170/1/3 167/1/3 166/1/3
f 170/1/3 166/1/3 165/1/3
f 172/2/3 168/2/3 162/2/3
f 174/1/3 171/1/3 170/1/3
f 174/1/3 170/1/3 165/1/3
f 175/1/3 171/1/3 174/1/3
f 176/2/3 173/2/3 172/2/3
f 176/2/3 172/2/3 162/2/3
f 177/2/3 173/2/3 176/2/3
f 179/1/3 174/1/3 165/1/3
f 180/1/3 174/1/3 179/1/3
f 181/1/3 174/1/3 180/1/3
f 182/2/3 173/2/3 177/2/3
f 183/2/3 173/2/3 182/2/3
f 185/1/3 180/1/3 179/1/3
f 185/1/3 179/1/3 178/1/3
f 186/1/3 180/1/3 185/1/3
f 187/1/3 180/1/3 186/1/3
f 189/2/3 185/2/3 184/2/3
f 189/2/3 186/2/3 185/2/3
f 190/2/3 186/2/3 189/2/3
f 191/2/3 189/2/3 188/2/3
f 192/2/3 189/2/3 191/2/3
f 193/2/4 194/2/4 195/2/4
f 195/2/4 194/2/4 196/2/4
f 196/2/4 197/2/4 200/2/4
f 200/2/4 197/2/4 201/2/4
f 201/2/4 197/2/4 202/2/4
f 198/2/4 199/2/4 205/2/4
f 201/1/4 202/1/4 206/1/4
f 202/1/4 203/1/4 206/1/4
f 206/1/4 203/1/4 207/1/4
f 207/1/4 203/1/4 208/1/4
f 204/2/4 205/2/4 210/2/4
f 205/2/4 199/2/4 211/2/4
f 210/2/4 205/2/4 211/2/4
f 208/1/4 209/1/4 212/1/4
f 207/1/4 208/1/4 212/1/4
f 204/2/4 210/2/4 214/2/4
f 211/2/4 199/2/4 215/2/4
f 212/1/4 213/1/4 216/1/4
f 207/1/4 212/1/4 216/1/4
f 216/1/4 213/1/4 217/1/4
f 204/2/4 214/2/4 218/2/4
f 214/2/4 215/2/4 218/2/4
f 215/2/4 199/2/4 219/2/4
f 218/2/4 215/2/4 219/2/4
f 207/1/4 216/1/4 221/1/4
f 221/1/4 216/1/4 222/1/4
f 222/1/4 216/1/4 223/1/4
f 219/2/4 199/2/4 224/2/4
f 224/2/4 199/2/4 225/2/4
f 221/1/4 222/1/4 227/1/4
f 220/1/4 221/1/4 227/1/4
f 227/1/4 222/1/4 228/1/4
f 228/1/4 222/1/4 229/1/4
f 226/2/4 227/2/4 231/2/4
f 227/2/4 228/2/4 231/2/4
f 231/2/4 228/2/4 232/2/4
f 230/2/4 231/2/4 233/2/4
f 233/2/4 231/2/4 234/2/4
f 235/2/4 236/2/4 237/2/4
f 235/2/4 237/2/4 239/2/4
f 237/2/4 238/2/4 239/2/4
f 239/2/4 238/2/4 240/2/4
f 242/2/4 243/2/4 244/2/4
f 244/2/4 243/2/4 245/2/4
f 240/2/4 241/2/4 247/2/4
f 247/2/4 241/2/4 248/2/4
f 246/2/4 247/2/4 249/2/4
f 249/2/4 247/2/4 250/2/4
f 246/2/4 249/2/4 251/2/4
f 251/2/4 249/2/4 252/2/4
f 253/2/4 254/2/4 255/2/4
f 255/2/4 254/2/4 256/2/4
f 259/2/5 258/2/5 257/2/5
f 260/2/5 258/2/5 259/2/5
f 263/2/5 262/2/5 261/2/5
f 264/2/5 262/2/5 263/2/5
f 267/2/5 266/2/5 265/2/5
f 268/2/5 266/2/5 267/2/5
f 273/2/5 270/2/5 269/2/5
f 274/2/5 270/2/5 273/2/5
f 275/2/5 272/2/5 271/2/5
f 276/2/5 272/2/5 275/2/5
f 280/2/5 278/2/5 277/2/5
f 281/2/5 278/2/5 280/2/5
f 282/2/5 278/2/5 281/2/5
f 283/2/5 278/2/5 282/2/5
f 286/2/5 280/2/5 279/2/5
f 286/2/5 281/2/5 280/2/5
f 287/2/5 281/2/5 286/2/5
f 288/2/5 281/2/5 287/2/5
f 289/2/5 283/2/5 282/2/5
f 289/2/5 284/2/5 283/2/5
f 290/2/5 284/2/5 289/2/5
f 291/2/5 284/2/5 290/2/5
f 293/2/5 287/2/5 286/2/5
f 293/2/5 286/2/5 285/2/5
f 294/2/5 287/2/5 293/2/5
f 295/2/5 287/2/5 294/2/5
f 296/2/5 292/2/5 291/2/5
f 296/2/5 291/2/5 290/2/5
f 297/2/5 292/2/5 296/2/5
f 298/2/5 292/2/5 297/2/5
f 299/2/5 295/2/5 294/2/5
f 299/2/5 297/2/5 296/2/5
f 299/2/5 296/2/5 295/2/5
f 300/2/5 297/2/5 299/2/5
f 301/2/5 297/2/5 300/2/5
f 302/2/5 297/2/5 301/2/5
f 303/2/5 301/2/5 300/2/5
f 304/2/5 301/2/5 303/2/5
f 305/2/6 306/2/6 307/2/6
f 307/2/6 306/2/6 308/2/6
f 309/2/6 310/2/6 314/2/6
f 314/2/6 310/2/6 315/2/6
f 311/2/6 312/2/6 316/2/6
f 316/2/6 312/2/6 317/2/6
f 313/2/6 314/2/6 319/2/6
f 319/2/6 314/2/6 320/2/6
f 317/2/6 318/2/6 323/2/6
f 323/2/6 318/2/6 324/2/6
f 320/2/6 321/2/6 325/2/6
f 325/2/6 321/2/6 326/2/6
f 322/2/6 323/2/6 327/2/6
f 327/2/6 323/2/6 328/2/6
f 329/2/6 330/2/6 332/2/6
f 332/2/6 330/2/6 333/2/6
f 331/2/6 332/2/6 335/2/6
f 335/2/6 332/2/6 336/2/6
f 333/2/6 334/2/6 337/2/6
f 337/2/6 334/2/6 338/2/6
f 339/2/6 340/2/6 343/2/6
f 343/2/6 340/2/6 344/2/6
f 341/2/6 342/2/6 345/2/6
f 345/2/6 342/2/6 346/2/6
f 344/2/6 345/2/6 347/2/6
f 347/2/6 345/2/6 348/2/6
f 349/2/6 350/2/6 353/2/6
f 353/2/6 350/2/6 354/2/6
f 351/2/6 352/2/6 357/2/6
f 357/2/6 352/2/6 358/2/6
f 355/2/6 356/2/6 361/2/6
f 361/2/6 356/2/6 362/2/6
f 359/2/6 360/2/6 363/2/6
f 363/2/6 360/2/6 364/2/6
f 365/1/6 366/1/6 369/1/6
f 369/1/6 366/1/6 370/1/6
f 367/1/6 368/1/6 371/1/6
f 371/1/6 368/1/6 372/1/6
f 373/1/6 374/1/6 377/1/6
f 377/1/6 374/1/6 378/1/6
f 375/1/6 376/1/6 379/1/6
f 379/1/6 376/1/6 380/1/6
f 381/1/6 382/1/6 383/1/6
f 383/1/6 382/1/6 384/1/6
