# MagicaVoxel @ Ephtracy

# group
o 

# material
mtllib decor2.vox.mtl
usemtl palette

# normals
vn -1 0 0
vn 1 0 0
vn 0 0 1
vn 0 0 -1
vn 0 -1 0
vn 0 1 0

# texcoords
vt 0.884766 0.5
vt 0.888672 0.5

# verts
v -0.6 0.2 0.3
v -0.6 0.2 0.2
v -0.6 0.3 0.3
v -0.6 0.3 0.2
v -0.6 0.6 0.3
v -0.6 0.6 0.2
v -0.6 0.7 0.3
v -0.6 0.7 0.2
v -0.6 0.9 0.3
v -0.6 0.9 0.2
v -0.6 1 0.3
v -0.6 1 0.2
v -0.5 0.4 0.3
v -0.5 0.4 0.2
v -0.5 0.5 0.3
v -0.5 0.5 0.2
v -0.5 1.1 0.3
v -0.5 1.1 0.2
v -0.5 1.2 0.3
v -0.5 1.2 0.2
v -0.4 0 0.3
v -0.4 0 0.2
v -0.4 0.1 0.3
v -0.4 0.1 0.2
v -0.4 0.2 0.3
v -0.4 0.2 0.2
v -0.4 0.3 0.3
v -0.4 0.3 0.2
v -0.4 0.4 0.3
v -0.4 0.4 0.2
v -0.4 0.7 0.3
v -0.4 0.7 0.2
v -0.4 0.9 0.3
v -0.4 0.9 0.2
v -0.4 1 0.3
v -0.4 1 0.2
v -0.4 1.1 0.3
v -0.4 1.1 0.2
v -0.4 1.2 0.3
v -0.4 1.2 0.2
v -0.4 1.3 0.3
v -0.4 1.3 0.2
v -0.3 0.5 0.3
v -0.3 0.5 0.2
v -0.3 0.6 0.3
v -0.3 0.6 0.2
v 0 0.7 -0.2
v 0 0.7 -0.3
v 0 0.8 -0.2
v 0 0.8 -0.3
v 0.1 0.3 -0.2
v 0.1 0.3 -0.3
v 0.1 0.4 -0.2
v 0.1 0.4 -0.3
v 0.1 0.8 -0.2
v 0.1 0.8 -0.3
v 0.1 0.9 -0.2
v 0.1 0.9 -0.3
v 0.2 0 -0.2
v 0.2 0 -0.3
v 0.2 0.1 -0.2
v 0.2 0.1 -0.3
v 0.2 0.2 -0.2
v 0.2 0.2 -0.3
v 0.2 0.3 -0.2
v 0.2 0.3 -0.3
v 0.2 0.5 -0.2
v 0.2 0.5 -0.3
v 0.2 0.7 -0.2
v 0.2 0.7 -0.3
v 0.2 0.9 -0.2
v 0.2 0.9 -0.3
v 0.2 1 -0.2
v 0.2 1 -0.3
v 0.3 0.4 -0.2
v 0.3 0.4 -0.3
v 0.3 0.5 -0.2
v 0.3 0.5 -0.3
v -0.3 0 0.3
v -0.3 0 0.2
v -0.3 0.1 0.3
v -0.3 0.1 0.2
v -0.3 0.2 0.3
v -0.3 0.2 0.2
v -0.3 0.3 0.3
v -0.3 0.3 0.2
v -0.3 0.4 0.3
v -0.3 0.4 0.2
v -0.3 0.5 0.3
v -0.3 0.5 0.2
v -0.3 0.7 0.3
v -0.3 0.7 0.2
v -0.3 0.8 0.3
v -0.3 0.8 0.2
v -0.3 0.9 0.3
v -0.3 0.9 0.2
v -0.3 1 0.3
v -0.3 1 0.2
v -0.3 1.1 0.3
v -0.3 1.1 0.2
v -0.3 1.2 0.3
v -0.3 1.2 0.2
v -0.3 1.3 0.3
v -0.3 1.3 0.2
v -0.2 0.6 0.3
v -0.2 0.6 0.2
v -0.2 0.7 0.3
v -0.2 0.7 0.2
v -0.2 1.1 0.3
v -0.2 1.1 0.2
v -0.2 1.2 0.3
v -0.2 1.2 0.2
v -0.1 0.5 0.3
v -0.1 0.5 0.2
v -0.1 0.6 0.3
v -0.1 0.6 0.2
v -0.1 0.8 0.3
v -0.1 0.8 0.2
v -0.1 0.9 0.3
v -0.1 0.9 0.2
v 0 0.3 0.3
v 0 0.3 0.2
v 0 0.4 0.3
v 0 0.4 0.2
v 0.3 0 -0.2
v 0.3 0 -0.3
v 0.3 0.1 -0.2
v 0.3 0.1 -0.3
v 0.3 0.2 -0.2
v 0.3 0.2 -0.3
v 0.3 0.3 -0.2
v 0.3 0.3 -0.3
v 0.3 0.4 -0.2
v 0.3 0.4 -0.3
v 0.3 0.5 -0.2
v 0.3 0.5 -0.3
v 0.3 0.6 -0.2
v 0.3 0.6 -0.3
v 0.3 0.7 -0.2
v 0.3 0.7 -0.3
v 0.3 0.8 -0.2
v 0.3 0.8 -0.3
v 0.3 0.9 -0.2
v 0.3 0.9 -0.3
v 0.3 1 -0.2
v 0.3 1 -0.3
v 0.4 0.8 -0.2
v 0.4 0.8 -0.3
v 0.4 0.9 -0.2
v 0.4 0.9 -0.3
v 0.5 0.4 -0.2
v 0.5 0.4 -0.3
v 0.5 0.5 -0.2
v 0.5 0.5 -0.3
v 0.5 0.6 -0.2
v 0.5 0.6 -0.3
v 0.5 0.7 -0.2
v 0.5 0.7 -0.3
v 0.6 0.2 -0.2
v 0.6 0.2 -0.3
v 0.6 0.3 -0.2
v 0.6 0.3 -0.3
v -0.6 0.2 0.3
v -0.6 0.3 0.3
v -0.6 0.6 0.3
v -0.6 0.7 0.3
v -0.6 0.9 0.3
v -0.6 1 0.3
v -0.5 0.2 0.3
v -0.5 0.3 0.3
v -0.5 0.4 0.3
v -0.5 0.5 0.3
v -0.5 0.9 0.3
v -0.5 1 0.3
v -0.5 1.1 0.3
v -0.5 1.2 0.3
v -0.4 0 0.3
v -0.4 0.1 0.3
v -0.4 0.2 0.3
v -0.4 0.3 0.3
v -0.4 0.4 0.3
v -0.4 0.5 0.3
v -0.4 0.6 0.3
v -0.4 0.7 0.3
v -0.4 0.9 0.3
v -0.4 1 0.3
v -0.4 1.1 0.3
v -0.4 1.2 0.3
v -0.4 1.3 0.3
v -0.3 0 0.3
v -0.3 0.1 0.3
v -0.3 0.2 0.3
v -0.3 0.3 0.3
v -0.3 0.4 0.3
v -0.3 0.5 0.3
v -0.3 0.6 0.3
v -0.3 0.7 0.3
v -0.3 0.8 0.3
v -0.3 0.9 0.3
v -0.3 1 0.3
v -0.3 1.1 0.3
v -0.3 1.2 0.3
v -0.3 1.3 0.3
v -0.2 0.3 0.3
v -0.2 0.4 0.3
v -0.2 0.5 0.3
v -0.2 0.6 0.3
v -0.2 0.7 0.3
v -0.2 0.8 0.3
v -0.2 0.9 0.3
v -0.2 1.1 0.3
v -0.2 1.2 0.3
v -0.1 0.3 0.3
v -0.1 0.4 0.3
v -0.1 0.5 0.3
v -0.1 0.6 0.3
v -0.1 0.8 0.3
v -0.1 0.9 0.3
v 0 0.3 0.3
v 0 0.4 0.3
v 0 0.7 -0.2
v 0 0.8 -0.2
v 0.1 0.3 -0.2
v 0.1 0.4 -0.2
v 0.1 0.7 -0.2
v 0.1 0.8 -0.2
v 0.1 0.9 -0.2
v 0.2 0 -0.2
v 0.2 0.1 -0.2
v 0.2 0.2 -0.2
v 0.2 0.3 -0.2
v 0.2 0.4 -0.2
v 0.2 0.5 -0.2
v 0.2 0.7 -0.2
v 0.2 0.8 -0.2
v 0.2 0.9 -0.2
v 0.2 1 -0.2
v 0.3 0 -0.2
v 0.3 0.1 -0.2
v 0.3 0.2 -0.2
v 0.3 0.3 -0.2
v 0.3 0.4 -0.2
v 0.3 0.5 -0.2
v 0.3 0.6 -0.2
v 0.3 0.7 -0.2
v 0.3 0.8 -0.2
v 0.3 0.9 -0.2
v 0.3 1 -0.2
v 0.4 0.2 -0.2
v 0.4 0.3 -0.2
v 0.4 0.4 -0.2
v 0.4 0.5 -0.2
v 0.4 0.6 -0.2
v 0.4 0.7 -0.2
v 0.4 0.8 -0.2
v 0.4 0.9 -0.2
v 0.5 0.2 -0.2
v 0.5 0.3 -0.2
v 0.5 0.4 -0.2
v 0.5 0.5 -0.2
v 0.5 0.6 -0.2
v 0.5 0.7 -0.2
v 0.6 0.2 -0.2
v 0.6 0.3 -0.2
v -0.6 0.2 0.2
v -0.6 0.3 0.2
v -0.6 0.6 0.2
v -0.6 0.7 0.2
v -0.6 0.9 0.2
v -0.6 1 0.2
v -0.5 0.2 0.2
v -0.5 0.3 0.2
v -0.5 0.4 0.2
v -0.5 0.5 0.2
v -0.5 0.9 0.2
v -0.5 1 0.2
v -0.5 1.1 0.2
v -0.5 1.2 0.2
v -0.4 0 0.2
v -0.4 0.1 0.2
v -0.4 0.2 0.2
v -0.4 0.3 0.2
v -0.4 0.4 0.2
v -0.4 0.5 0.2
v -0.4 0.6 0.2
v -0.4 0.7 0.2
v -0.4 0.9 0.2
v -0.4 1 0.2
v -0.4 1.1 0.2
v -0.4 1.2 0.2
v -0.4 1.3 0.2
v -0.3 0 0.2
v -0.3 0.1 0.2
v -0.3 0.2 0.2
v -0.3 0.3 0.2
v -0.3 0.4 0.2
v -0.3 0.5 0.2
v -0.3 0.6 0.2
v -0.3 0.7 0.2
v -0.3 0.8 0.2
v -0.3 0.9 0.2
v -0.3 1 0.2
v -0.3 1.1 0.2
v -0.3 1.2 0.2
v -0.3 1.3 0.2
v -0.2 0.3 0.2
v -0.2 0.4 0.2
v -0.2 0.5 0.2
v -0.2 0.6 0.2
v -0.2 0.7 0.2
v -0.2 0.8 0.2
v -0.2 0.9 0.2
v -0.2 1.1 0.2
v -0.2 1.2 0.2
v -0.1 0.3 0.2
v -0.1 0.4 0.2
v -0.1 0.5 0.2
v -0.1 0.6 0.2
v -0.1 0.8 0.2
v -0.1 0.9 0.2
v 0 0.3 0.2
v 0 0.4 0.2
v 0 0.7 -0.3
v 0 0.8 -0.3
v 0.1 0.3 -0.3
v 0.1 0.4 -0.3
v 0.1 0.7 -0.3
v 0.1 0.8 -0.3
v 0.1 0.9 -0.3
v 0.2 0 -0.3
v 0.2 0.1 -0.3
v 0.2 0.2 -0.3
v 0.2 0.3 -0.3
v 0.2 0.4 -0.3
v 0.2 0.5 -0.3
v 0.2 0.7 -0.3
v 0.2 0.8 -0.3
v 0.2 0.9 -0.3
v 0.2 1 -0.3
v 0.3 0 -0.3
v 0.3 0.1 -0.3
v 0.3 0.2 -0.3
v 0.3 0.3 -0.3
v 0.3 0.4 -0.3
v 0.3 0.5 -0.3
v 0.3 0.6 -0.3
v 0.3 0.7 -0.3
v 0.3 0.8 -0.3
v 0.3 0.9 -0.3
v 0.3 1 -0.3
v 0.4 0.2 -0.3
v 0.4 0.3 -0.3
v 0.4 0.4 -0.3
v 0.4 0.5 -0.3
v 0.4 0.6 -0.3
v 0.4 0.7 -0.3
v 0.4 0.8 -0.3
v 0.4 0.9 -0.3
v 0.5 0.2 -0.3
v 0.5 0.3 -0.3
v 0.5 0.4 -0.3
v 0.5 0.5 -0.3
v 0.5 0.6 -0.3
v 0.5 0.7 -0.3
v 0.6 0.2 -0.3
v 0.6 0.3 -0.3
v -0.4 0 0.3
v -0.3 0 0.3
v -0.4 0 0.2
v -0.3 0 0.2
v 0.2 0 -0.2
v 0.3 0 -0.2
v 0.2 0 -0.3
v 0.3 0 -0.3
v -0.6 0.2 0.3
v -0.5 0.2 0.3
v -0.4 0.2 0.3
v -0.6 0.2 0.2
v -0.5 0.2 0.2
v -0.4 0.2 0.2
v 0.3 0.2 -0.2
v 0.4 0.2 -0.2
v 0.5 0.2 -0.2
v 0.6 0.2 -0.2
v 0.3 0.2 -0.3
v 0.4 0.2 -0.3
v 0.5 0.2 -0.3
v 0.6 0.2 -0.3
v -0.3 0.3 0.3
v -0.2 0.3 0.3
v -0.1 0.3 0.3
v 0 0.3 0.3
v -0.3 0.3 0.2
v -0.2 0.3 0.2
v -0.1 0.3 0.2
v 0 0.3 0.2
v 0.1 0.3 -0.2
v 0.2 0.3 -0.2
v 0.1 0.3 -0.3
v 0.2 0.3 -0.3
v -0.5 0.4 0.3
v -0.4 0.4 0.3
v -0.5 0.4 0.2
v -0.4 0.4 0.2
v 0.3 0.4 -0.2
v 0.4 0.4 -0.2
v 0.5 0.4 -0.2
v 0.3 0.4 -0.3
v 0.4 0.4 -0.3
v 0.5 0.4 -0.3
v -0.3 0.5 0.3
v -0.2 0.5 0.3
v -0.1 0.5 0.3
v -0.3 0.5 0.2
v -0.2 0.5 0.2
v -0.1 0.5 0.2
v 0.2 0.5 -0.2
v 0.3 0.5 -0.2
v 0.2 0.5 -0.3
v 0.3 0.5 -0.3
v -0.6 0.6 0.3
v -0.4 0.6 0.3
v -0.3 0.6 0.3
v -0.6 0.6 0.2
v -0.4 0.6 0.2
v -0.3 0.6 0.2
v 0.3 0.6 -0.2
v 0.4 0.6 -0.2
v 0.5 0.6 -0.2
v 0.3 0.6 -0.3
v 0.4 0.6 -0.3
v 0.5 0.6 -0.3
v 0 0.7 -0.2
v 0.1 0.7 -0.2
v 0.2 0.7 -0.2
v 0 0.7 -0.3
v 0.1 0.7 -0.3
v 0.2 0.7 -0.3
v -0.3 0.8 0.3
v -0.2 0.8 0.3
v -0.1 0.8 0.3
v -0.3 0.8 0.2
v -0.2 0.8 0.2
v -0.1 0.8 0.2
v 0.3 0.8 -0.2
v 0.4 0.8 -0.2
v 0.3 0.8 -0.3
v 0.4 0.8 -0.3
v -0.6 0.9 0.3
v -0.5 0.9 0.3
v -0.4 0.9 0.3
v -0.6 0.9 0.2
v -0.5 0.9 0.2
v -0.4 0.9 0.2
v -0.5 1.1 0.3
v -0.4 1.1 0.3
v -0.3 1.1 0.3
v -0.2 1.1 0.3
v -0.5 1.1 0.2
v -0.4 1.1 0.2
v -0.3 1.1 0.2
v -0.2 1.1 0.2
v -0.6 0.3 0.3
v -0.5 0.3 0.3
v -0.4 0.3 0.3
v -0.6 0.3 0.2
v -0.5 0.3 0.2
v -0.4 0.3 0.2
v 0.3 0.3 -0.2
v 0.4 0.3 -0.2
v 0.5 0.3 -0.2
v 0.6 0.3 -0.2
v 0.3 0.3 -0.3
v 0.4 0.3 -0.3
v 0.5 0.3 -0.3
v 0.6 0.3 -0.3
v -0.3 0.4 0.3
v -0.2 0.4 0.3
v -0.1 0.4 0.3
v 0 0.4 0.3
v -0.3 0.4 0.2
v -0.2 0.4 0.2
v -0.1 0.4 0.2
v 0 0.4 0.2
v 0.1 0.4 -0.2
v 0.2 0.4 -0.2
v 0.3 0.4 -0.2
v 0.1 0.4 -0.3
v 0.2 0.4 -0.3
v 0.3 0.4 -0.3
v -0.5 0.5 0.3
v -0.4 0.5 0.3
v -0.3 0.5 0.3
v -0.5 0.5 0.2
v -0.4 0.5 0.2
v -0.3 0.5 0.2
v 0.3 0.5 -0.2
v 0.4 0.5 -0.2
v 0.5 0.5 -0.2
v 0.3 0.5 -0.3
v 0.4 0.5 -0.3
v 0.5 0.5 -0.3
v -0.2 0.6 0.3
v -0.1 0.6 0.3
v -0.2 0.6 0.2
v -0.1 0.6 0.2
v -0.6 0.7 0.3
v -0.4 0.7 0.3
v -0.3 0.7 0.3
v -0.2 0.7 0.3
v -0.6 0.7 0.2
v -0.4 0.7 0.2
v -0.3 0.7 0.2
v -0.2 0.7 0.2
v 0.3 0.7 -0.2
v 0.4 0.7 -0.2
v 0.5 0.7 -0.2
v 0.3 0.7 -0.3
v 0.4 0.7 -0.3
v 0.5 0.7 -0.3
v 0 0.8 -0.2
v 0.1 0.8 -0.2
v 0 0.8 -0.3
v 0.1 0.8 -0.3
v -0.3 0.9 0.3
v -0.2 0.9 0.3
v -0.1 0.9 0.3
v -0.3 0.9 0.2
v -0.2 0.9 0.2
v -0.1 0.9 0.2
v 0.1 0.9 -0.2
v 0.2 0.9 -0.2
v 0.3 0.9 -0.2
v 0.4 0.9 -0.2
v 0.1 0.9 -0.3
v 0.2 0.9 -0.3
v 0.3 0.9 -0.3
v 0.4 0.9 -0.3
v -0.6 1 0.3
v -0.5 1 0.3
v -0.4 1 0.3
v -0.6 1 0.2
v -0.5 1 0.2
v -0.4 1 0.2
v 0.2 1 -0.2
v 0.3 1 -0.2
v 0.2 1 -0.3
v 0.3 1 -0.3
v -0.5 1.2 0.3
v -0.4 1.2 0.3
v -0.3 1.2 0.3
v -0.2 1.2 0.3
v -0.5 1.2 0.2
v -0.4 1.2 0.2
v -0.3 1.2 0.2
v -0.2 1.2 0.2
v -0.4 1.3 0.3
v -0.3 1.3 0.3
v -0.4 1.3 0.2
v -0.3 1.3 0.2

# faces
f 3/1/1 2/1/1 1/1/1
f 4/1/1 2/1/1 3/1/1
f 7/1/1 6/1/1 5/1/1
f 8/1/1 6/1/1 7/1/1
f 11/1/1 10/1/1 9/1/1
f 12/1/1 10/1/1 11/1/1
f 15/1/1 14/1/1 13/1/1
f 16/1/1 14/1/1 15/1/1
f 19/2/1 18/2/1 17/2/1
f 20/2/1 18/2/1 19/2/1
f 23/1/1 22/1/1 21/1/1
f 24/1/1 22/1/1 23/1/1
f 25/2/1 24/2/1 23/2/1
f 26/2/1 24/2/1 25/2/1
f 29/1/1 28/1/1 27/1/1
f 30/1/1 28/1/1 29/1/1
f 33/1/1 32/1/1 31/1/1
f 34/1/1 32/1/1 33/1/1
f 37/2/1 36/2/1 35/2/1
f 38/2/1 36/2/1 37/2/1
f 41/1/1 40/1/1 39/1/1
f 42/1/1 40/1/1 41/1/1
f 45/1/1 44/1/1 43/1/1
f 46/1/1 44/1/1 45/1/1
f 49/1/1 48/1/1 47/1/1
f 50/1/1 48/1/1 49/1/1
f 53/1/1 52/1/1 51/1/1
f 54/1/1 52/1/1 53/1/1
f 57/2/1 56/2/1 55/2/1
f 58/2/1 56/2/1 57/2/1
f 61/1/1 60/1/1 59/1/1
f 62/1/1 60/1/1 61/1/1
f 63/2/1 62/2/1 61/2/1
f 64/2/1 62/2/1 63/2/1
f 65/1/1 64/1/1 63/1/1
f 66/1/1 64/1/1 65/1/1
f 69/1/1 68/1/1 67/1/1
f 70/1/1 68/1/1 69/1/1
f 73/1/1 72/1/1 71/1/1
f 74/1/1 72/1/1 73/1/1
f 77/1/1 76/1/1 75/1/1
f 78/1/1 76/1/1 77/1/1
f 79/1/2 80/1/2 81/1/2
f 81/1/2 80/1/2 82/1/2
f 81/2/2 82/2/2 83/2/2
f 83/2/2 82/2/2 84/2/2
f 83/1/2 84/1/2 85/1/2
f 85/1/2 84/1/2 86/1/2
f 87/2/2 88/2/2 89/2/2
f 89/2/2 88/2/2 90/2/2
f 91/1/2 92/1/2 93/1/2
f 93/1/2 92/1/2 94/1/2
f 95/1/2 96/1/2 97/1/2
f 97/1/2 96/1/2 98/1/2
f 97/2/2 98/2/2 99/2/2
f 99/2/2 98/2/2 100/2/2
f 101/1/2 102/1/2 103/1/2
f 103/1/2 102/1/2 104/1/2
f 105/1/2 106/1/2 107/1/2
f 107/1/2 106/1/2 108/1/2
f 109/1/2 110/1/2 111/1/2
f 111/1/2 110/1/2 112/1/2
f 113/2/2 114/2/2 115/2/2
f 115/2/2 114/2/2 116/2/2
f 117/2/2 118/2/2 119/2/2
f 119/2/2 118/2/2 120/2/2
f 121/1/2 122/1/2 123/1/2
f 123/1/2 122/1/2 124/1/2
f 125/1/2 126/1/2 127/1/2
f 127/1/2 126/1/2 128/1/2
f 127/2/2 128/2/2 129/2/2
f 129/2/2 128/2/2 130/2/2
f 131/2/2 132/2/2 133/2/2
f 133/2/2 132/2/2 134/2/2
f 135/1/2 136/1/2 137/1/2
f 137/1/2 136/1/2 138/1/2
f 139/1/2 140/1/2 141/1/2
f 141/1/2 140/1/2 142/1/2
f 143/1/2 144/1/2 145/1/2
f 145/1/2 144/1/2 146/1/2
f 147/1/2 148/1/2 149/1/2
f 149/1/2 148/1/2 150/1/2
f 151/2/2 152/2/2 153/2/2
f 153/2/2 152/2/2 154/2/2
f 155/2/2 156/2/2 157/2/2
f 157/2/2 156/2/2 158/2/2
f 159/1/2 160/1/2 161/1/2
f 161/1/2 160/1/2 162/1/2
f 169/1/3 164/1/3 163/1/3
f 170/1/3 164/1/3 169/1/3
f 173/1/3 168/1/3 167/1/3
f 174/1/3 168/1/3 173/1/3
f 179/2/3 170/2/3 169/2/3
f 180/2/3 170/2/3 179/2/3
f 181/1/3 172/1/3 171/1/3
f 182/1/3 172/1/3 181/1/3
f 183/1/3 166/1/3 165/1/3
f 184/1/3 166/1/3 183/1/3
f 185/2/3 174/2/3 173/2/3
f 186/2/3 174/2/3 185/2/3
f 187/2/3 176/2/3 175/2/3
f 188/2/3 176/2/3 187/2/3
f 190/1/3 178/1/3 177/1/3
f 191/2/3 179/2/3 178/2/3
f 191/1/3 178/1/3 190/1/3
f 192/1/3 180/1/3 179/1/3
f 192/2/3 179/2/3 191/2/3
f 192/1/3 181/1/3 180/1/3
f 193/1/3 181/1/3 192/1/3
f 194/2/3 182/2/3 181/2/3
f 194/1/3 181/1/3 193/1/3
f 195/2/3 182/2/3 194/2/3
f 196/2/3 184/2/3 183/2/3
f 197/1/3 186/1/3 185/1/3
f 197/1/3 185/1/3 184/1/3
f 197/2/3 184/2/3 196/2/3
f 198/1/3 186/1/3 197/1/3
f 199/1/3 186/1/3 198/1/3
f 200/2/3 188/2/3 187/2/3
f 200/1/3 186/1/3 199/1/3
f 200/2/3 187/2/3 186/2/3
f 201/2/3 188/2/3 200/2/3
f 202/1/3 189/1/3 188/1/3
f 202/2/3 188/2/3 201/2/3
f 203/1/3 189/1/3 202/1/3
f 204/1/3 194/1/3 193/1/3
f 205/1/3 194/1/3 204/1/3
f 206/1/3 197/1/3 196/1/3
f 206/1/3 196/1/3 195/1/3
f 207/1/3 197/1/3 206/1/3
f 208/1/3 197/1/3 207/1/3
f 209/1/3 199/1/3 198/1/3
f 210/1/3 199/1/3 209/1/3
f 211/1/3 202/1/3 201/1/3
f 212/1/3 202/1/3 211/1/3
f 213/2/3 205/2/3 204/2/3
f 214/2/3 205/2/3 213/2/3
f 215/2/3 207/2/3 206/2/3
f 216/2/3 207/2/3 215/2/3
f 217/2/3 210/2/3 209/2/3
f 218/2/3 210/2/3 217/2/3
f 219/1/3 214/1/3 213/1/3
f 220/1/3 214/1/3 219/1/3
f 225/1/3 222/1/3 221/1/3
f 226/1/3 222/1/3 225/1/3
f 231/1/3 224/1/3 223/1/3
f 232/1/3 224/1/3 231/1/3
f 234/2/3 226/2/3 225/2/3
f 234/2/3 227/2/3 226/2/3
f 235/2/3 227/2/3 234/2/3
f 236/2/3 227/2/3 235/2/3
f 238/1/3 229/1/3 228/1/3
f 239/2/3 230/2/3 229/2/3
f 239/1/3 229/1/3 238/1/3
f 240/1/3 231/1/3 230/1/3
f 240/2/3 230/2/3 239/2/3
f 241/2/3 232/2/3 231/2/3
f 241/1/3 231/1/3 240/1/3
f 242/2/3 232/2/3 241/2/3
f 243/1/3 234/1/3 233/1/3
f 243/1/3 235/1/3 234/1/3
f 244/1/3 235/1/3 243/1/3
f 245/1/3 235/1/3 244/1/3
f 246/2/3 236/2/3 235/2/3
f 246/1/3 235/1/3 245/1/3
f 247/1/3 237/1/3 236/1/3
f 247/2/3 236/2/3 246/2/3
f 248/1/3 237/1/3 247/1/3
f 249/1/3 241/1/3 240/1/3
f 250/1/3 241/1/3 249/1/3
f 251/1/3 243/1/3 242/1/3
f 252/1/3 243/1/3 251/1/3
f 253/1/3 245/1/3 244/1/3
f 254/1/3 245/1/3 253/1/3
f 255/1/3 247/1/3 246/1/3
f 256/1/3 247/1/3 255/1/3
f 257/2/3 250/2/3 249/2/3
f 258/2/3 250/2/3 257/2/3
f 259/2/3 252/2/3 251/2/3
f 260/2/3 252/2/3 259/2/3
f 261/2/3 254/2/3 253/2/3
f 262/2/3 254/2/3 261/2/3
f 263/1/3 258/1/3 257/1/3
f 264/1/3 258/1/3 263/1/3
f 265/1/4 266/1/4 271/1/4
f 271/1/4 266/1/4 272/1/4
f 269/1/4 270/1/4 275/1/4
f 275/1/4 270/1/4 276/1/4
f 271/2/4 272/2/4 281/2/4
f 281/2/4 272/2/4 282/2/4
f 273/1/4 274/1/4 283/1/4
f 283/1/4 274/1/4 284/1/4
f 267/1/4 268/1/4 285/1/4
f 285/1/4 268/1/4 286/1/4
f 275/2/4 276/2/4 287/2/4
f 287/2/4 276/2/4 288/2/4
f 277/2/4 278/2/4 289/2/4
f 289/2/4 278/2/4 290/2/4
f 279/1/4 280/1/4 292/1/4
f 280/2/4 281/2/4 293/2/4
f 292/1/4 280/1/4 293/1/4
f 281/1/4 282/1/4 294/1/4
f 293/2/4 281/2/4 294/2/4
f 282/1/4 283/1/4 294/1/4
f 294/1/4 283/1/4 295/1/4
f 283/2/4 284/2/4 296/2/4
f 295/1/4 283/1/4 296/1/4
f 296/2/4 284/2/4 297/2/4
f 285/2/4 286/2/4 298/2/4
f 287/1/4 288/1/4 299/1/4
f 286/1/4 287/1/4 299/1/4
f 298/2/4 286/2/4 299/2/4
f 299/1/4 288/1/4 300/1/4
f 300/1/4 288/1/4 301/1/4
f 289/2/4 290/2/4 302/2/4
f 301/1/4 288/1/4 302/1/4
f 288/2/4 289/2/4 302/2/4
f 302/2/4 290/2/4 303/2/4
f 290/1/4 291/1/4 304/1/4
f 303/2/4 290/2/4 304/2/4
f 304/1/4 291/1/4 305/1/4
f 295/1/4 296/1/4 306/1/4
f 306/1/4 296/1/4 307/1/4
f 298/1/4 299/1/4 308/1/4
f 297/1/4 298/1/4 308/1/4
f 308/1/4 299/1/4 309/1/4
f 309/1/4 299/1/4 310/1/4
f 300/1/4 301/1/4 311/1/4
f 311/1/4 301/1/4 312/1/4
f 303/1/4 304/1/4 313/1/4
f 313/1/4 304/1/4 314/1/4
f 306/2/4 307/2/4 315/2/4
f 315/2/4 307/2/4 316/2/4
f 308/2/4 309/2/4 317/2/4
f 317/2/4 309/2/4 318/2/4
f 311/2/4 312/2/4 319/2/4
f 319/2/4 312/2/4 320/2/4
f 315/1/4 316/1/4 321/1/4
f 321/1/4 316/1/4 322/1/4
f 323/1/4 324/1/4 327/1/4
f 327/1/4 324/1/4 328/1/4
f 325/1/4 326/1/4 333/1/4
f 333/1/4 326/1/4 334/1/4
f 327/2/4 328/2/4 336/2/4
f 328/2/4 329/2/4 336/2/4
f 336/2/4 329/2/4 337/2/4
f 337/2/4 329/2/4 338/2/4
f 330/1/4 331/1/4 340/1/4
f 331/2/4 332/2/4 341/2/4
f 340/1/4 331/1/4 341/1/4
f 332/1/4 333/1/4 342/1/4
f 341/2/4 332/2/4 342/2/4
f 333/2/4 334/2/4 343/2/4
f 342/1/4 333/1/4 343/1/4
f 343/2/4 334/2/4 344/2/4
f 335/1/4 336/1/4 345/1/4
f 336/1/4 337/1/4 345/1/4
f 345/1/4 337/1/4 346/1/4
f 346/1/4 337/1/4 347/1/4
f 337/2/4 338/2/4 348/2/4
f 347/1/4 337/1/4 348/1/4
f 338/1/4 339/1/4 349/1/4
f 348/2/4 338/2/4 349/2/4
f 349/1/4 339/1/4 350/1/4
f 342/1/4 343/1/4 351/1/4
f 351/1/4 343/1/4 352/1/4
f 344/1/4 345/1/4 353/1/4
f 353/1/4 345/1/4 354/1/4
f 346/1/4 347/1/4 355/1/4
f 355/1/4 347/1/4 356/1/4
f 348/1/4 349/1/4 357/1/4
f 357/1/4 349/1/4 358/1/4
f 351/2/4 352/2/4 359/2/4
f 359/2/4 352/2/4 360/2/4
f 353/2/4 354/2/4 361/2/4
f 361/2/4 354/2/4 362/2/4
f 355/2/4 356/2/4 363/2/4
f 363/2/4 356/2/4 364/2/4
f 359/1/4 360/1/4 365/1/4
f 365/1/4 360/1/4 366/1/4
f 369/1/5 368/1/5 367/1/5
f 370/1/5 368/1/5 369/1/5
f 373/1/5 372/1/5 371/1/5
f 374/1/5 372/1/5 373/1/5
f 378/1/5 376/1/5 375/1/5
f 379/2/5 377/2/5 376/2/5
f 379/1/5 376/1/5 378/1/5
f 380/2/5 377/2/5 379/2/5
f 385/1/5 382/1/5 381/1/5
f 386/2/5 383/2/5 382/2/5
f 386/1/5 382/1/5 385/1/5
f 387/1/5 384/1/5 383/1/5
f 387/2/5 383/2/5 386/2/5
f 388/1/5 384/1/5 387/1/5
f 393/1/5 390/1/5 389/1/5
f 394/2/5 391/2/5 390/2/5
f 394/1/5 390/1/5 393/1/5
f 395/1/5 392/1/5 391/1/5
f 395/2/5 391/2/5 394/2/5
f 396/1/5 392/1/5 395/1/5
f 399/1/5 398/1/5 397/1/5
f 400/1/5 398/1/5 399/1/5
f 403/1/5 402/1/5 401/1/5
f 404/1/5 402/1/5 403/1/5
f 408/1/5 406/1/5 405/1/5
f 409/2/5 407/2/5 406/2/5
f 409/1/5 406/1/5 408/1/5
f 410/2/5 407/2/5 409/2/5
f 414/1/5 412/1/5 411/1/5
f 415/2/5 413/2/5 412/2/5
f 415/1/5 412/1/5 414/1/5
f 416/2/5 413/2/5 415/2/5
f 419/1/5 418/1/5 417/1/5
f 420/1/5 418/1/5 419/1/5
f 424/1/5 422/1/5 421/1/5
f 425/2/5 423/2/5 422/2/5
f 425/1/5 422/1/5 424/1/5
f 426/2/5 423/2/5 425/2/5
f 430/1/5 428/1/5 427/1/5
f 431/2/5 429/2/5 428/2/5
f 431/1/5 428/1/5 430/1/5
f 432/2/5 429/2/5 431/2/5
f 436/1/5 434/1/5 433/1/5
f 437/2/5 435/2/5 434/2/5
f 437/1/5 434/1/5 436/1/5
f 438/2/5 435/2/5 437/2/5
f 442/1/5 440/1/5 439/1/5
f 443/2/5 441/2/5 440/2/5
f 443/1/5 440/1/5 442/1/5
f 444/2/5 441/2/5 443/2/5
f 447/1/5 446/1/5 445/1/5
f 448/1/5 446/1/5 447/1/5
f 452/1/5 450/1/5 449/1/5
f 453/2/5 451/2/5 450/2/5
f 453/1/5 450/1/5 452/1/5
f 454/2/5 451/2/5 453/2/5
f 459/2/5 456/2/5 455/2/5
f 460/2/5 456/2/5 459/2/5
f 461/1/5 458/1/5 457/1/5
f 462/1/5 458/1/5 461/1/5
f 463/1/6 464/1/6 466/1/6
f 464/2/6 465/2/6 467/2/6
f 466/1/6 464/1/6 467/1/6
f 467/2/6 465/2/6 468/2/6
f 469/1/6 470/1/6 473/1/6
f 470/2/6 471/2/6 474/2/6
f 473/1/6 470/1/6 474/1/6
f 471/1/6 472/1/6 475/1/6
f 474/2/6 471/2/6 475/2/6
f 475/1/6 472/1/6 476/1/6
f 477/1/6 478/1/6 481/1/6
f 478/2/6 479/2/6 482/2/6
f 481/1/6 478/1/6 482/1/6
f 479/1/6 480/1/6 483/1/6
f 482/2/6 479/2/6 483/2/6
f 483/1/6 480/1/6 484/1/6
f 485/1/6 486/1/6 488/1/6
f 486/2/6 487/2/6 489/2/6
f 488/1/6 486/1/6 489/1/6
f 489/2/6 487/2/6 490/2/6
f 491/1/6 492/1/6 494/1/6
f 492/2/6 493/2/6 495/2/6
f 494/1/6 492/1/6 495/1/6
f 495/2/6 493/2/6 496/2/6
f 497/1/6 498/1/6 500/1/6
f 498/2/6 499/2/6 501/2/6
f 500/1/6 498/1/6 501/1/6
f 501/2/6 499/2/6 502/2/6
f 503/2/6 504/2/6 505/2/6
f 505/2/6 504/2/6 506/2/6
f 507/1/6 508/1/6 511/1/6
f 511/1/6 508/1/6 512/1/6
f 509/1/6 510/1/6 513/1/6
f 513/1/6 510/1/6 514/1/6
f 515/1/6 516/1/6 518/1/6
f 516/2/6 517/2/6 519/2/6
f 518/1/6 516/1/6 519/1/6
f 519/2/6 517/2/6 520/2/6
f 521/1/6 522/1/6 523/1/6
f 523/1/6 522/1/6 524/1/6
f 525/1/6 526/1/6 528/1/6
f 526/2/6 527/2/6 529/2/6
f 528/1/6 526/1/6 529/1/6
f 529/2/6 527/2/6 530/2/6
f 531/2/6 532/2/6 535/2/6
f 535/2/6 532/2/6 536/2/6
f 533/1/6 534/1/6 537/1/6
f 537/1/6 534/1/6 538/1/6
f 539/1/6 540/1/6 542/1/6
f 540/2/6 541/2/6 543/2/6
f 542/1/6 540/1/6 543/1/6
f 543/2/6 541/2/6 544/2/6
f 545/1/6 546/1/6 547/1/6
f 547/1/6 546/1/6 548/1/6
f 549/2/6 550/2/6 553/2/6
f 553/2/6 550/2/6 554/2/6
f 551/1/6 552/1/6 555/1/6
f 555/1/6 552/1/6 556/1/6
f 557/1/6 558/1/6 559/1/6
f 559/1/6 558/1/6 560/1/6
