# MagicaVoxel @ Ephtracy

# group
o 

# material
mtllib mushroom3.vox.mtl
usemtl palette

# normals
vn -1 0 0
vn 1 0 0
vn 0 0 1
vn 0 0 -1
vn 0 -1 0
vn 0 1 0

# texcoords
vt 0.189453 0.5
vt 0.193359 0.5

# verts
v -0.7 0.7 0.1
v -0.7 0.7 -0.1
v -0.7 0.9 0.1
v -0.7 0.9 -0.1
v -0.6 0.7 0.2
v -0.6 0.7 0.1
v -0.6 0.7 -0.1
v -0.6 0.7 -0.2
v -0.6 0.9 0.2
v -0.6 0.9 0.1
v -0.6 0.9 -0.1
v -0.6 0.9 -0.2
v -0.6 1.1 0.1
v -0.6 1.1 -0.1
v -0.5 0 0.1
v -0.5 0 -0.1
v -0.5 0.7 0.3
v -0.5 0.7 0.2
v -0.5 0.7 0.1
v -0.5 0.7 -0.1
v -0.5 0.7 -0.2
v -0.5 0.7 -0.3
v -0.5 0.9 0.3
v -0.5 0.9 0.2
v -0.5 0.9 0.1
v -0.5 0.9 -0.1
v -0.5 0.9 -0.2
v -0.5 0.9 -0.3
v -0.5 1.1 0.2
v -0.5 1.1 0.1
v -0.5 1.1 -0.1
v -0.5 1.1 -0.2
v -0.5 1.2 0.1
v -0.5 1.2 -0.1
v 0.1 0.4 0.4
v 0.1 0.4 0.1
v 0.1 0.6 0.4
v 0.1 0.6 0.3
v 0.1 0.6 0.2
v 0.1 0.6 0.1
v 0.1 0.7 0.3
v 0.1 0.7 0.2
v 0.2 0 0.3
v 0.2 0 0.2
v 0.2 0.4 0.3
v 0.2 0.4 0.2
v 0.2 0.6 0.4
v 0.2 0.6 0.3
v 0.2 0.6 0.2
v 0.2 0.6 0.1
v 0.2 0.7 0.4
v 0.2 0.7 0.3
v 0.2 0.7 0.2
v 0.2 0.7 0.1
v -0.3 0 0.1
v -0.3 0 -0.1
v -0.3 0.7 0.3
v -0.3 0.7 0.2
v -0.3 0.7 0.1
v -0.3 0.7 -0.1
v -0.3 0.7 -0.2
v -0.3 0.7 -0.3
v -0.3 0.9 0.3
v -0.3 0.9 0.2
v -0.3 0.9 0.1
v -0.3 0.9 -0.1
v -0.3 0.9 -0.2
v -0.3 0.9 -0.3
v -0.3 1.1 0.2
v -0.3 1.1 0.1
v -0.3 1.1 -0.1
v -0.3 1.1 -0.2
v -0.3 1.2 0.1
v -0.3 1.2 -0.1
v -0.2 0.7 0.2
v -0.2 0.7 0.1
v -0.2 0.7 -0.1
v -0.2 0.7 -0.2
v -0.2 0.9 0.2
v -0.2 0.9 0.1
v -0.2 0.9 -0.1
v -0.2 0.9 -0.2
v -0.2 1.1 0.1
v -0.2 1.1 -0.1
v -0.1 0.7 0.1
v -0.1 0.7 -0.1
v -0.1 0.9 0.1
v -0.1 0.9 -0.1
v 0.3 0 0.3
v 0.3 0 0.2
v 0.3 0.4 0.3
v 0.3 0.4 0.2
v 0.3 0.6 0.4
v 0.3 0.6 0.3
v 0.3 0.6 0.2
v 0.3 0.6 0.1
v 0.3 0.7 0.4
v 0.3 0.7 0.3
v 0.3 0.7 0.2
v 0.3 0.7 0.1
v 0.4 0.4 0.4
v 0.4 0.4 0.1
v 0.4 0.6 0.4
v 0.4 0.6 0.3
v 0.4 0.6 0.2
v 0.4 0.6 0.1
v 0.4 0.7 0.3
v 0.4 0.7 0.2
v 0.1 0.4 0.4
v 0.1 0.6 0.4
v 0.2 0.6 0.4
v 0.2 0.7 0.4
v 0.3 0.6 0.4
v 0.3 0.7 0.4
v 0.4 0.4 0.4
v 0.4 0.6 0.4
v -0.5 0.7 0.3
v -0.5 0.9 0.3
v -0.3 0.7 0.3
v -0.3 0.9 0.3
v 0.1 0.6 0.3
v 0.1 0.7 0.3
v 0.2 0 0.3
v 0.2 0.4 0.3
v 0.2 0.6 0.3
v 0.2 0.7 0.3
v 0.3 0 0.3
v 0.3 0.4 0.3
v 0.3 0.6 0.3
v 0.3 0.7 0.3
v 0.4 0.6 0.3
v 0.4 0.7 0.3
v -0.6 0.7 0.2
v -0.6 0.9 0.2
v -0.5 0.7 0.2
v -0.5 0.9 0.2
v -0.5 1.1 0.2
v -0.3 0.7 0.2
v -0.3 0.9 0.2
v -0.3 1.1 0.2
v -0.2 0.7 0.2
v -0.2 0.9 0.2
v -0.7 0.7 0.1
v -0.7 0.9 0.1
v -0.6 0.7 0.1
v -0.6 0.9 0.1
v -0.6 1.1 0.1
v -0.5 0 0.1
v -0.5 0.7 0.1
v -0.5 0.9 0.1
v -0.5 1.1 0.1
v -0.5 1.2 0.1
v -0.3 0 0.1
v -0.3 0.7 0.1
v -0.3 0.9 0.1
v -0.3 1.1 0.1
v -0.3 1.2 0.1
v -0.2 0.7 0.1
v -0.2 0.9 0.1
v -0.2 1.1 0.1
v -0.1 0.7 0.1
v -0.1 0.9 0.1
v 0.1 0.6 0.2
v 0.1 0.7 0.2
v 0.2 0 0.2
v 0.2 0.4 0.2
v 0.2 0.6 0.2
v 0.2 0.7 0.2
v 0.3 0 0.2
v 0.3 0.4 0.2
v 0.3 0.6 0.2
v 0.3 0.7 0.2
v 0.4 0.6 0.2
v 0.4 0.7 0.2
v 0.1 0.4 0.1
v 0.1 0.6 0.1
v 0.2 0.6 0.1
v 0.2 0.7 0.1
v 0.3 0.6 0.1
v 0.3 0.7 0.1
v 0.4 0.4 0.1
v 0.4 0.6 0.1
v -0.7 0.7 -0.1
v -0.7 0.9 -0.1
v -0.6 0.7 -0.1
v -0.6 0.9 -0.1
v -0.6 1.1 -0.1
v -0.5 0 -0.1
v -0.5 0.7 -0.1
v -0.5 0.9 -0.1
v -0.5 1.1 -0.1
v -0.5 1.2 -0.1
v -0.3 0 -0.1
v -0.3 0.7 -0.1
v -0.3 0.9 -0.1
v -0.3 1.1 -0.1
v -0.3 1.2 -0.1
v -0.2 0.7 -0.1
v -0.2 0.9 -0.1
v -0.2 1.1 -0.1
v -0.1 0.7 -0.1
v -0.1 0.9 -0.1
v -0.6 0.7 -0.2
v -0.6 0.9 -0.2
v -0.5 0.7 -0.2
v -0.5 0.9 -0.2
v -0.5 1.1 -0.2
v -0.3 0.7 -0.2
v -0.3 0.9 -0.2
v -0.3 1.1 -0.2
v -0.2 0.7 -0.2
v -0.2 0.9 -0.2
v -0.5 0.7 -0.3
v -0.5 0.9 -0.3
v -0.3 0.7 -0.3
v -0.3 0.9 -0.3
v 0.2 0 0.3
v 0.3 0 0.3
v 0.2 0 0.2
v 0.3 0 0.2
v -0.5 0 0.1
v -0.3 0 0.1
v -0.5 0 -0.1
v -0.3 0 -0.1
v 0.1 0.4 0.4
v 0.4 0.4 0.4
v 0.2 0.4 0.3
v 0.3 0.4 0.3
v 0.2 0.4 0.2
v 0.3 0.4 0.2
v 0.1 0.4 0.1
v 0.4 0.4 0.1
v -0.5 0.7 0.3
v -0.3 0.7 0.3
v -0.6 0.7 0.2
v -0.5 0.7 0.2
v -0.3 0.7 0.2
v -0.2 0.7 0.2
v -0.7 0.7 0.1
v -0.6 0.7 0.1
v -0.5 0.7 0.1
v -0.3 0.7 0.1
v -0.2 0.7 0.1
v -0.1 0.7 0.1
v -0.7 0.7 -0.1
v -0.6 0.7 -0.1
v -0.5 0.7 -0.1
v -0.3 0.7 -0.1
v -0.2 0.7 -0.1
v -0.1 0.7 -0.1
v -0.6 0.7 -0.2
v -0.5 0.7 -0.2
v -0.3 0.7 -0.2
v -0.2 0.7 -0.2
v -0.5 0.7 -0.3
v -0.3 0.7 -0.3
v 0.1 0.6 0.4
v 0.2 0.6 0.4
v 0.3 0.6 0.4
v 0.4 0.6 0.4
v 0.1 0.6 0.3
v 0.2 0.6 0.3
v 0.3 0.6 0.3
v 0.4 0.6 0.3
v 0.1 0.6 0.2
v 0.2 0.6 0.2
v 0.3 0.6 0.2
v 0.4 0.6 0.2
v 0.1 0.6 0.1
v 0.2 0.6 0.1
v 0.3 0.6 0.1
v 0.4 0.6 0.1
v 0.2 0.7 0.4
v 0.3 0.7 0.4
v 0.1 0.7 0.3
v 0.2 0.7 0.3
v 0.3 0.7 0.3
v 0.4 0.7 0.3
v 0.1 0.7 0.2
v 0.2 0.7 0.2
v 0.3 0.7 0.2
v 0.4 0.7 0.2
v 0.2 0.7 0.1
v 0.3 0.7 0.1
v -0.5 0.9 0.3
v -0.3 0.9 0.3
v -0.6 0.9 0.2
v -0.5 0.9 0.2
v -0.3 0.9 0.2
v -0.2 0.9 0.2
v -0.7 0.9 0.1
v -0.6 0.9 0.1
v -0.5 0.9 0.1
v -0.3 0.9 0.1
v -0.2 0.9 0.1
v -0.1 0.9 0.1
v -0.7 0.9 -0.1
v -0.6 0.9 -0.1
v -0.5 0.9 -0.1
v -0.3 0.9 -0.1
v -0.2 0.9 -0.1
v -0.1 0.9 -0.1
v -0.6 0.9 -0.2
v -0.5 0.9 -0.2
v -0.3 0.9 -0.2
v -0.2 0.9 -0.2
v -0.5 0.9 -0.3
v -0.3 0.9 -0.3
v -0.5 1.1 0.2
v -0.3 1.1 0.2
v -0.6 1.1 0.1
v -0.5 1.1 0.1
v -0.3 1.1 0.1
v -0.2 1.1 0.1
v -0.6 1.1 -0.1
v -0.5 1.1 -0.1
v -0.3 1.1 -0.1
v -0.2 1.1 -0.1
v -0.5 1.1 -0.2
v -0.3 1.1 -0.2
v -0.5 1.2 0.1
v -0.3 1.2 0.1
v -0.5 1.2 -0.1
v -0.3 1.2 -0.1

# faces
f 3/2/1 2/2/1 1/2/1
f 4/2/1 2/2/1 3/2/1
f 9/2/1 6/2/1 5/2/1
f 10/2/1 6/2/1 9/2/1
f 11/2/1 8/2/1 7/2/1
f 12/2/1 8/2/1 11/2/1
f 13/2/1 11/2/1 10/2/1
f 14/2/1 11/2/1 13/2/1
f 19/1/1 16/1/1 15/1/1
f 20/1/1 16/1/1 19/1/1
f 23/2/1 18/2/1 17/2/1
f 24/2/1 18/2/1 23/2/1
f 27/2/1 22/2/1 21/2/1
f 28/2/1 22/2/1 27/2/1
f 29/2/1 25/2/1 24/2/1
f 30/2/1 25/2/1 29/2/1
f 31/2/1 27/2/1 26/2/1
f 32/2/1 27/2/1 31/2/1
f 33/2/1 31/2/1 30/2/1
f 34/2/1 31/2/1 33/2/1
f 37/2/1 36/2/1 35/2/1
f 38/2/1 36/2/1 37/2/1
f 39/2/1 36/2/1 38/2/1
f 40/2/1 36/2/1 39/2/1
f 41/2/1 39/2/1 38/2/1
f 42/2/1 39/2/1 41/2/1
f 45/1/1 44/1/1 43/1/1
f 46/1/1 44/1/1 45/1/1
f 51/2/1 48/2/1 47/2/1
f 52/2/1 48/2/1 51/2/1
f 53/2/1 50/2/1 49/2/1
f 54/2/1 50/2/1 53/2/1
f 55/1/2 56/1/2 59/1/2
f 59/1/2 56/1/2 60/1/2
f 57/2/2 58/2/2 63/2/2
f 63/2/2 58/2/2 64/2/2
f 61/2/2 62/2/2 67/2/2
f 67/2/2 62/2/2 68/2/2
f 64/2/2 65/2/2 69/2/2
f 69/2/2 65/2/2 70/2/2
f 66/2/2 67/2/2 71/2/2
f 71/2/2 67/2/2 72/2/2
f 70/2/2 71/2/2 73/2/2
f 73/2/2 71/2/2 74/2/2
f 75/2/2 76/2/2 79/2/2
f 79/2/2 76/2/2 80/2/2
f 77/2/2 78/2/2 81/2/2
f 81/2/2 78/2/2 82/2/2
f 80/2/2 81/2/2 83/2/2
f 83/2/2 81/2/2 84/2/2
f 85/2/2 86/2/2 87/2/2
f 87/2/2 86/2/2 88/2/2
f 89/1/2 90/1/2 91/1/2
f 91/1/2 90/1/2 92/1/2
f 93/2/2 94/2/2 97/2/2
f 97/2/2 94/2/2 98/2/2
f 95/2/2 96/2/2 99/2/2
f 99/2/2 96/2/2 100/2/2
f 101/2/2 102/2/2 103/2/2
f 103/2/2 102/2/2 104/2/2
f 104/2/2 102/2/2 105/2/2
f 105/2/2 102/2/2 106/2/2
f 104/2/2 105/2/2 107/2/2
f 107/2/2 105/2/2 108/2/2
f 111/2/3 110/2/3 109/2/3
f 113/2/3 111/2/3 109/2/3
f 113/2/3 112/2/3 111/2/3
f 114/2/3 112/2/3 113/2/3
f 115/2/3 113/2/3 109/2/3
f 116/2/3 113/2/3 115/2/3
f 119/2/3 118/2/3 117/2/3
f 120/2/3 118/2/3 119/2/3
f 125/2/3 122/2/3 121/2/3
f 126/2/3 122/2/3 125/2/3
f 127/1/3 124/1/3 123/1/3
f 128/1/3 124/1/3 127/1/3
f 131/2/3 130/2/3 129/2/3
f 132/2/3 130/2/3 131/2/3
f 135/2/3 134/2/3 133/2/3
f 136/2/3 134/2/3 135/2/3
f 139/2/3 137/2/3 136/2/3
f 140/2/3 137/2/3 139/2/3
f 141/2/3 139/2/3 138/2/3
f 142/2/3 139/2/3 141/2/3
f 145/2/3 144/2/3 143/2/3
f 146/2/3 144/2/3 145/2/3
f 150/2/3 147/2/3 146/2/3
f 151/2/3 147/2/3 150/2/3
f 153/1/3 149/1/3 148/1/3
f 154/1/3 149/1/3 153/1/3
f 156/2/3 152/2/3 151/2/3
f 157/2/3 152/2/3 156/2/3
f 159/2/3 156/2/3 155/2/3
f 160/2/3 156/2/3 159/2/3
f 161/2/3 159/2/3 158/2/3
f 162/2/3 159/2/3 161/2/3
f 163/2/4 164/2/4 167/2/4
f 167/2/4 164/2/4 168/2/4
f 165/1/4 166/1/4 169/1/4
f 169/1/4 166/1/4 170/1/4
f 171/2/4 172/2/4 173/2/4
f 173/2/4 172/2/4 174/2/4
f 175/2/4 176/2/4 177/2/4
f 175/2/4 177/2/4 179/2/4
f 177/2/4 178/2/4 179/2/4
f 179/2/4 178/2/4 180/2/4
f 175/2/4 179/2/4 181/2/4
f 181/2/4 179/2/4 182/2/4
f 183/2/4 184/2/4 185/2/4
f 185/2/4 184/2/4 186/2/4
f 186/2/4 187/2/4 190/2/4
f 190/2/4 187/2/4 191/2/4
f 188/1/4 189/1/4 193/1/4
f 193/1/4 189/1/4 194/1/4
f 191/2/4 192/2/4 196/2/4
f 196/2/4 192/2/4 197/2/4
f 195/2/4 196/2/4 199/2/4
f 199/2/4 196/2/4 200/2/4
f 198/2/4 199/2/4 201/2/4
f 201/2/4 199/2/4 202/2/4
f 203/2/4 204/2/4 205/2/4
f 205/2/4 204/2/4 206/2/4
f 206/2/4 207/2/4 209/2/4
f 209/2/4 207/2/4 210/2/4
f 208/2/4 209/2/4 211/2/4
f 211/2/4 209/2/4 212/2/4
f 213/2/4 214/2/4 215/2/4
f 215/2/4 214/2/4 216/2/4
f 219/1/5 218/1/5 217/1/5
f 220/1/5 218/1/5 219/1/5
f 223/1/5 222/1/5 221/1/5
f 224/1/5 222/1/5 223/1/5
f 227/2/5 226/2/5 225/2/5
f 228/2/5 226/2/5 227/2/5
f 229/2/5 227/2/5 225/2/5
f 230/2/5 226/2/5 228/2/5
f 231/2/5 229/2/5 225/2/5
f 231/2/5 230/2/5 229/2/5
f 232/2/5 226/2/5 230/2/5
f 232/2/5 230/2/5 231/2/5
f 236/2/5 234/2/5 233/2/5
f 237/2/5 234/2/5 236/2/5
f 240/2/5 236/2/5 235/2/5
f 240/2/5 238/2/5 237/2/5
f 240/2/5 237/2/5 236/2/5
f 241/2/5 238/2/5 240/2/5
f 242/2/5 238/2/5 241/2/5
f 243/2/5 238/2/5 242/2/5
f 245/2/5 240/2/5 239/2/5
f 245/2/5 241/2/5 240/2/5
f 246/2/5 241/2/5 245/2/5
f 247/2/5 241/2/5 246/2/5
f 248/2/5 244/2/5 243/2/5
f 248/2/5 243/2/5 242/2/5
f 249/2/5 244/2/5 248/2/5
f 250/2/5 244/2/5 249/2/5
f 251/2/5 247/2/5 246/2/5
f 251/2/5 249/2/5 248/2/5
f 251/2/5 248/2/5 247/2/5
f 252/2/5 249/2/5 251/2/5
f 253/2/5 249/2/5 252/2/5
f 254/2/5 249/2/5 253/2/5
f 255/2/5 253/2/5 252/2/5
f 256/2/5 253/2/5 255/2/5
f 257/2/6 258/2/6 261/2/6
f 261/2/6 258/2/6 262/2/6
f 259/2/6 260/2/6 263/2/6
f 263/2/6 260/2/6 264/2/6
f 265/2/6 266/2/6 269/2/6
f 269/2/6 266/2/6 270/2/6
f 267/2/6 268/2/6 271/2/6
f 271/2/6 268/2/6 272/2/6
f 273/2/6 274/2/6 276/2/6
f 276/2/6 274/2/6 277/2/6
f 275/2/6 276/2/6 279/2/6
f 277/2/6 278/2/6 279/2/6
f 276/2/6 277/2/6 279/2/6
f 279/2/6 278/2/6 280/2/6
f 280/2/6 278/2/6 281/2/6
f 281/2/6 278/2/6 282/2/6
f 280/2/6 281/2/6 283/2/6
f 283/2/6 281/2/6 284/2/6
f 285/2/6 286/2/6 288/2/6
f 288/2/6 286/2/6 289/2/6
f 287/2/6 288/2/6 292/2/6
f 292/2/6 288/2/6 293/2/6
f 289/2/6 290/2/6 294/2/6
f 294/2/6 290/2/6 295/2/6
f 291/2/6 292/2/6 297/2/6
f 297/2/6 292/2/6 298/2/6
f 295/2/6 296/2/6 301/2/6
f 301/2/6 296/2/6 302/2/6
f 298/2/6 299/2/6 303/2/6
f 303/2/6 299/2/6 304/2/6
f 300/2/6 301/2/6 305/2/6
f 305/2/6 301/2/6 306/2/6
f 304/2/6 305/2/6 307/2/6
f 307/2/6 305/2/6 308/2/6
f 309/2/6 310/2/6 312/2/6
f 312/2/6 310/2/6 313/2/6
f 311/2/6 312/2/6 315/2/6
f 315/2/6 312/2/6 316/2/6
f 313/2/6 314/2/6 317/2/6
f 317/2/6 314/2/6 318/2/6
f 316/2/6 317/2/6 319/2/6
f 319/2/6 317/2/6 320/2/6
f 321/2/6 322/2/6 323/2/6
f 323/2/6 322/2/6 324/2/6
